<svg width="142" height="118" viewBox="0 0 142 118" fill="none" xmlns="http://www.w3.org/2000/svg">
<path d="M88.5 42L71 32L53.5 42V10C53.5 8.93913 54.0268 7.92172 54.9645 7.17157C55.9021 6.42143 57.1739 6 58.5 6H83.5C84.8261 6 86.0979 6.42143 87.0355 7.17157C87.9732 7.92172 88.5 8.93913 88.5 10V42Z" stroke="#009951" stroke-width="4" stroke-linecap="round" stroke-linejoin="round"/>
<path d="M53.5 76L71 86L88.5 76V108C88.5 109.061 87.9732 110.078 87.0355 110.828C86.0979 111.579 84.8261 112 83.5 112H58.5C57.1739 112 55.9021 111.579 54.9645 110.828C54.0268 110.078 53.5 109.061 53.5 108L53.5 76Z" stroke="#009951" stroke-width="4" stroke-linecap="round" stroke-linejoin="round"/>
<path d="M12.54 48.92L30 59.02L47.46 48.92M30 79.16V59M48 67V51C47.9993 50.2985 47.8141 49.6096 47.4631 49.0023C47.112 48.395 46.6075 47.8907 46 47.54L32 39.54C31.3919 39.1889 30.7021 39.0041 30 39.0041C29.2979 39.0041 28.6081 39.1889 28 39.54L14 47.54C13.3925 47.8907 12.888 48.395 12.5369 49.0023C12.1859 49.6096 12.0007 50.2985 12 51V67C12.0007 67.7014 12.1859 68.3904 12.5369 68.9977C12.888 69.605 13.3925 70.1093 14 70.46L28 78.46C28.6081 78.8111 29.2979 78.9959 30 78.9959C30.7021 78.9959 31.3919 78.8111 32 78.46L46 70.46C46.6075 70.1093 47.112 69.605 47.4631 68.9977C47.8141 68.3904 47.9993 67.7014 48 67Z" stroke="#F5F5F5" stroke-width="4" stroke-linecap="round" stroke-linejoin="round"/>
<path d="M47.5 42L30 32L12.5 42V10C12.5 8.93913 13.0268 7.92172 13.9645 7.17157C14.9021 6.42143 16.1739 6 17.5 6H42.5C43.8261 6 45.0979 6.42143 46.0355 7.17157C46.9732 7.92172 47.5 8.93913 47.5 10V42Z" stroke="#F5F5F5" stroke-width="4" stroke-linecap="round" stroke-linejoin="round"/>
<path d="M12.5 76L30 86L47.5 76L47.5 108C47.5 109.061 46.9732 110.078 46.0355 110.828C45.0979 111.579 43.8261 112 42.5 112H17.5C16.1739 112 14.9021 111.579 13.9645 110.828C13.0268 110.078 12.5 109.061 12.5 108L12.5 76Z" stroke="#F5F5F5" stroke-width="4" stroke-linecap="round" stroke-linejoin="round"/>
<path d="M94.54 48.92L112 59.02L129.46 48.92M112 79.16V59M130 67V51C129.999 50.2985 129.814 49.6096 129.463 49.0023C129.112 48.395 128.607 47.8907 128 47.54L114 39.54C113.392 39.1889 112.702 39.0041 112 39.0041C111.298 39.0041 110.608 39.1889 110 39.54L96 47.54C95.3925 47.8907 94.888 48.395 94.5369 49.0023C94.1859 49.6096 94.0007 50.2985 94 51V67C94.0007 67.7014 94.1859 68.3904 94.5369 68.9977C94.888 69.605 95.3925 70.1093 96 70.46L110 78.46C110.608 78.8111 111.298 78.9959 112 78.9959C112.702 78.9959 113.392 78.8111 114 78.46L128 70.46C128.607 70.1093 129.112 69.605 129.463 68.9977C129.814 68.3904 129.999 67.7014 130 67Z" stroke="#F5F5F5" stroke-width="4" stroke-linecap="round" stroke-linejoin="round"/>
<path d="M129.5 42L112 32L94.5 42V10C94.5 8.93913 95.0268 7.92172 95.9645 7.17157C96.9021 6.42143 98.1739 6 99.5 6H124.5C125.826 6 127.098 6.42143 128.036 7.17157C128.973 7.92172 129.5 8.93913 129.5 10V42Z" stroke="#F5F5F5" stroke-width="4" stroke-linecap="round" stroke-linejoin="round"/>
<path d="M94.5 76L112 86L129.5 76V108C129.5 109.061 128.973 110.078 128.036 110.828C127.098 111.579 125.826 112 124.5 112H99.5C98.1739 112 96.9021 111.579 95.9645 110.828C95.0268 110.078 94.5 109.061 94.5 108V76Z" stroke="#F5F5F5" stroke-width="4" stroke-linecap="round" stroke-linejoin="round"/>
<path d="M41.25 25V15C41.2496 14.5616 41.1338 14.131 40.9144 13.7515C40.695 13.3719 40.3797 13.0567 40 12.8375L31.25 7.8375C30.87 7.61808 30.4388 7.50256 30 7.50256C29.5612 7.50256 29.13 7.61808 28.75 7.8375L20 12.8375C19.6203 13.0567 19.305 13.3719 19.0856 13.7515C18.8662 14.131 18.7504 14.5616 18.75 15V25C18.7504 25.4384 18.8662 25.869 19.0856 26.2485C19.305 26.6281 19.6203 26.9433 20 27.1625L28.75 32.1625C29.13 32.3819 29.5612 32.4974 30 32.4974C30.4388 32.4974 30.87 32.3819 31.25 32.1625L40 27.1625C40.3797 26.9433 40.695 26.6281 40.9144 26.2485C41.1338 25.869 41.2496 25.4384 41.25 25Z" stroke="#F5F5F5" stroke-width="4" stroke-linecap="round" stroke-linejoin="round"/>
<path d="M82.25 103V93C82.2496 92.5616 82.1338 92.131 81.9144 91.7515C81.695 91.3719 81.3797 91.0567 81 90.8375L72.25 85.8375C71.87 85.6181 71.4388 85.5026 71 85.5026C70.5612 85.5026 70.13 85.6181 69.75 85.8375L61 90.8375C60.6203 91.0567 60.305 91.3719 60.0856 91.7515C59.8662 92.131 59.7504 92.5616 59.75 93V103C59.7504 103.438 59.8662 103.869 60.0856 104.249C60.305 104.628 60.6203 104.943 61 105.162L69.75 110.162C70.13 110.382 70.5612 110.497 71 110.497C71.4388 110.497 71.87 110.382 72.25 110.162L81 105.162C81.3797 104.943 81.695 104.628 81.9144 104.249C82.1338 103.869 82.2496 103.438 82.25 103Z" stroke="#009951" stroke-width="4" stroke-linecap="round" stroke-linejoin="round"/>
<path d="M82.25 25V15C82.2496 14.5616 82.1338 14.131 81.9144 13.7515C81.695 13.3719 81.3797 13.0567 81 12.8375L72.25 7.8375C71.87 7.61808 71.4388 7.50256 71 7.50256C70.5612 7.50256 70.13 7.61808 69.75 7.8375L61 12.8375C60.6203 13.0567 60.305 13.3719 60.0856 13.7515C59.8662 14.131 59.7504 14.5616 59.75 15V25C59.7504 25.4384 59.8662 25.869 60.0856 26.2485C60.305 26.6281 60.6203 26.9433 61 27.1625L69.75 32.1625C70.13 32.3819 70.5612 32.4974 71 32.4974C71.4388 32.4974 71.87 32.3819 72.25 32.1625L81 27.1625C81.3797 26.9433 81.695 26.6281 81.9144 26.2485C82.1338 25.869 82.2496 25.4384 82.25 25Z" stroke="#009951" stroke-width="4" stroke-linecap="round" stroke-linejoin="round"/>
<path d="M123.25 103V93C123.25 92.5616 123.134 92.131 122.914 91.7515C122.695 91.3719 122.38 91.0567 122 90.8375L113.25 85.8375C112.87 85.6181 112.439 85.5026 112 85.5026C111.561 85.5026 111.13 85.6181 110.75 85.8375L102 90.8375C101.62 91.0567 101.305 91.3719 101.086 91.7515C100.866 92.131 100.75 92.5616 100.75 93V103C100.75 103.438 100.866 103.869 101.086 104.249C101.305 104.628 101.62 104.943 102 105.162L110.75 110.162C111.13 110.382 111.561 110.497 112 110.497C112.439 110.497 112.87 110.382 113.25 110.162L122 105.162C122.38 104.943 122.695 104.628 122.914 104.249C123.134 103.869 123.25 103.438 123.25 103Z" stroke="#F5F5F5" stroke-width="4" stroke-linecap="round" stroke-linejoin="round"/>
<path d="M123.25 25V15C123.25 14.5616 123.134 14.131 122.914 13.7515C122.695 13.3719 122.38 13.0567 122 12.8375L113.25 7.8375C112.87 7.61808 112.439 7.50256 112 7.50256C111.561 7.50256 111.13 7.61808 110.75 7.8375L102 12.8375C101.62 13.0567 101.305 13.3719 101.086 13.7515C100.866 14.131 100.75 14.5616 100.75 15V25C100.75 25.4384 100.866 25.869 101.086 26.2485C101.305 26.6281 101.62 26.9433 102 27.1625L110.75 32.1625C111.13 32.3819 111.561 32.4974 112 32.4974C112.439 32.4974 112.87 32.3819 113.25 32.1625L122 27.1625C122.38 26.9433 122.695 26.6281 122.914 26.2485C123.134 25.869 123.25 25.4384 123.25 25Z" stroke="#F5F5F5" stroke-width="4" stroke-linecap="round" stroke-linejoin="round"/>
<path d="M41.25 103V93C41.2496 92.5616 41.1338 92.131 40.9144 91.7515C40.695 91.3719 40.3797 91.0567 40 90.8375L31.25 85.8375C30.87 85.6181 30.4388 85.5026 30 85.5026C29.5612 85.5026 29.13 85.6181 28.75 85.8375L20 90.8375C19.6203 91.0567 19.305 91.3719 19.0856 91.7515C18.8662 92.131 18.7504 92.5616 18.75 93V103C18.7504 103.438 18.8662 103.869 19.0856 104.249C19.305 104.628 19.6203 104.943 20 105.162L28.75 110.162C29.13 110.382 29.5612 110.497 30 110.497C30.4388 110.497 30.87 110.382 31.25 110.162L40 105.162C40.3797 104.943 40.695 104.628 40.9144 104.249C41.1338 103.869 41.2496 103.438 41.25 103Z" stroke="#F5F5F5" stroke-width="4" stroke-linecap="round" stroke-linejoin="round"/>
<path d="M89 67V51C88.9993 50.2985 88.8141 49.6096 88.4631 49.0023C88.112 48.395 87.6075 47.8907 87 47.54L73 39.54C72.3919 39.1889 71.7021 39.0041 71 39.0041C70.2979 39.0041 69.6081 39.1889 69 39.54L55 47.54C54.3925 47.8907 53.888 48.395 53.5369 49.0023C53.1859 49.6096 53.0007 50.2985 53 51V67C53.0007 67.7014 53.1859 68.3904 53.5369 68.9977C53.888 69.605 54.3925 70.1093 55 70.46L69 78.46C69.6081 78.8111 70.2979 78.9959 71 78.9959C71.7021 78.9959 72.3919 78.8111 73 78.46L87 70.46C87.6075 70.1093 88.112 69.605 88.4631 68.9977C88.8141 68.3904 88.9993 67.7014 89 67Z" stroke="#009951" stroke-width="4" stroke-linecap="round" stroke-linejoin="round"/>
</svg>
